<svg xmlns="http://www.w3.org/2000/svg">
  <symbol>
    <g id="instagram">
      <path
        d="M15.3,11.32 C14.7722708,10.5663332 13.9100607,10.1174981 12.99,10.1174981 C12.0699393,10.1174981 11.2077292,10.5663332 10.68,11.32 C10.3310448,11.8109066 10.1424294,12.3977102 10.14,13 C10.14,14.5740115 11.4159885,15.8499999 12.99,15.8499999 C14.5640115,15.8499999 15.84,14.5740115 15.84,13 C15.8375706,12.3977102 15.6489552,11.8109066 15.3,11.32 Z"
        
      ></path>
      <path
        d="M17.09,11.34 C17.3171443,11.8634612 17.4296627,12.4294627 17.42,13 C17.42,15.4466214 15.4366214,17.43 12.99,17.43 C10.5433786,17.43 8.56,15.4466214 8.56,13 C8.54894702,12.4325683 8.66155427,11.869532 8.89,11.35 L6.39,11.35 L6.39,18 C6.43576145,18.8661414 7.13335431,19.5550685 8,19.59 L18,19.59 C18.8588477,19.5451003 19.5451003,18.8588477 19.59,18 L19.59,11.34 L17.09,11.34 Z"
        
      ></path>
      <polygon
        
        points="18.84 6.76 16.45 6.76 16.45 9.51 19.18 9.51 19.18 7.11 19.18 6.74"
      ></polygon>
      <path
        d="M19.46,7.28306304e-16 L6.52,7.28306304e-16 C2.92138684,0.00550668626 0.00550668626,2.92138684 0,6.52 L0,19.52 C0.0274315433,23.1029825 2.93691658,25.9946179 6.52,26 L19.52,26 C23.1107807,25.9725091 26.0056043,23.0508815 26,19.46 L26,6.52 C25.9780675,2.92042909 23.0596212,0.0109076877 19.46,7.28306304e-16 Z M21,11.32 L21,18 C21,19.6568542 19.6568542,21 18,21 L8,21 C6.34314575,21 5,19.6568542 5,18 L5,8 C5,6.34314575 6.34314575,5 8,5 L18,5 C19.6568542,5 21,6.34314575 21,8 L21,11.3 L21,11.32 Z"
        
      ></path>
    </g>
  </symbol>
  <symbol>
    <g id="facebook" fill-rule="nonzero">
      <path
        d="M19.48,0 L6.5,0 C2.90919977,0.0164928064 0.00546111025,2.92916605 0,6.52 L0,19.52 C0.0273388392,23.0952131 2.92471965,25.9836789 6.5,26 L19.5,26 C23.0908002,25.9835072 25.9945389,23.0708339 26,19.48 L26,6.48 C25.9725685,2.89701754 23.0630834,0.00538210981 19.48,0 Z M16.48,13 L14,13 L14,21.05 L10.94,21.05 L10.94,13 L9.29,13 L9.29,9.7 L10.73,9.7 L10.73,8.3 C10.6658193,7.37030647 11.0101041,6.45882183 11.6728924,5.80371807 C12.3356806,5.1486143 13.2511181,4.81498213 14.18,4.89 L16.71,4.89 L16.71,7.63 L14.92,7.63 C14.63,7.63 14.24,7.82 14.24,8.46 L14.24,9.7 L16.78,9.7 L16.48,13 Z"
        
      ></path>
    </g>
  </symbol>
  <symbol>
    <g
      id="cellphone"
      transform="translate(-1.000000, -1.000000)"
      fill-rule="nonzero"
    >
      <path
        d="M14.54,28.12 C15.1983329,28.1338691 15.8336713,27.8777603 16.2983409,27.4112018 C16.7630104,26.9446434 17.0165397,26.3082712 17,25.65 L17,3.47 C17.0165397,2.81172879 16.7630104,2.17535661 16.2983409,1.70879818 C15.8336713,1.24223974 15.1983329,0.986130854 14.54,1 L3.46,1 C2.80166711,0.986130854 2.16632868,1.24223974 1.70165914,1.70879818 C1.23698961,2.17535661 0.983460258,2.81172879 1,3.47 L1,25.65 C0.983460258,26.3082712 1.23698961,26.9446434 1.70165914,27.4112018 C2.16632868,27.8777603 2.80166711,28.1338691 3.46,28.12 L14.54,28.12 Z M9,27.09 C8.32068976,27.09 7.77,26.5393102 7.77,25.86 C7.77,25.1806898 8.32068976,24.63 9,24.63 C9.67931024,24.63 10.23,25.1806898 10.23,25.86 C10.23,26.5393102 9.67931024,27.09 9,27.09 Z M5.92,2.5 C5.91994966,2.42662478 5.94976459,2.35638915 6.00258333,2.30545679 C6.05540208,2.25452443 6.12667511,2.22728238 6.2,2.23 L11.8,2.23 C11.9508172,2.22990379 12.0746137,2.34927899 12.08,2.5 L12.08,2.58 C12.0800503,2.65337522 12.0502354,2.72361085 11.9974167,2.77454321 C11.9445979,2.82547557 11.8733249,2.85271762 11.8,2.85 L6.2,2.85 C6.0491828,2.85009621 5.9253863,2.73072101 5.92,2.58 L5.92,2.5 Z M2.23,4.08 L15.77,4.08 L15.77,23.77 L2.23,23.77 L2.23,4.08 Z"
        
      ></path>
    </g>
  </symbol>
  <symbol>
    <path
      id="cover-icon-user"
      class="cls-1"
      d="M124,176a60.75,60.75,0,0,1-40-14.967V151a40,40,0,0,1,80,0v10.033A60.751,60.751,0,0,1,124,176Zm0-69a23,23,0,1,1,23-23A23,23,0,0,1,124,107Z"
      transform="translate(-84 -61)"
    />
  </symbol>
  <symbol>
    <g
      id="line-menu"
      transform="translate(-1.000000, 0.000000)"
      fill="#283593"
      fill-rule="nonzero"
    >
      <path
        d="M2.9,3.85 C2.4007447,3.86349835 1.91724177,3.6745636 1.55940901,3.3261475 C1.20157626,2.9777314 0.999817556,2.49943771 1,2 C0.972540222,1.47899689 1.1605289,0.969625434 1.51986758,0.591374197 C1.87920625,0.213122961 2.37827425,-0.000723140068 2.9,1.11022302e-16 L22.05,1.11022302e-16 C23.1349951,0.0271333055 24.0003392,0.914665715 24,2 C24.0001776,2.51269524 23.7931506,3.00370229 23.4259431,3.36149423 C23.0587356,3.71928617 22.5625177,3.91349201 22.05,3.9 L2.9,3.85 Z"
        
      ></path>
      <path
        d="M22.05,8.57 C23.1158588,8.59632945 23.9736706,9.45414122 24,10.52 C24.0001776,11.0326952 23.7931506,11.5237023 23.4259431,11.8814942 C23.0587356,12.2392862 22.5625177,12.433492 22.05,12.42 L2.9,12.42 C2.39194706,12.4339272 1.90054037,12.2382249 1.54115774,11.8788423 C1.18177511,11.5194596 0.986072825,11.0280529 1,10.52 C0.986507989,10.0074823 1.18071383,9.51126442 1.53850577,9.1440569 C1.89629771,8.77684939 2.38730476,8.56982244 2.9,8.57 L22.05,8.57 Z"
       
      ></path>
      <path
        d="M22.05,17.2 C22.5607875,17.1865474 23.055465,17.3793951 23.4223722,17.7350128 C23.7892794,18.0906305 23.9974878,18.5790415 24,19.09 C24.0003392,20.1753343 23.1349951,21.0628667 22.05,21.09 L2.9,21.09 C2.37827425,21.0907231 1.87920625,20.876877 1.51986758,20.4986258 C1.1605289,20.1203746 0.972540222,19.6110031 1,19.09 C0.988861135,18.5836606 1.18579474,18.094894 1.54486108,17.7377175 C1.90392743,17.380541 2.39372639,17.1861893 2.9,17.2 L22.05,17.2 Z"
       
      ></path>
    </g>
  </symbol>
  <symbol>
    <g id="linkedin">
      <path
        d="M19.46,7.28306304e-16 L6.52,7.28306304e-16 C2.92138684,0.00550668626 0.00550668626,2.92138684 0,6.52 L0,19.52 C0.0274315433,23.1029825 2.93691658,25.9946179 6.52,26 L19.52,26 C23.1107807,25.9725091 26.0056043,23.0508815 26,19.46 L26,6.52 C25.9780675,2.92042909 23.0596212,0.0109076877 19.46,7.28306304e-16 Z M8.66,21 L5,21 L5,10.31 L8.66,10.31 L8.66,21 Z M6.78,8.66 C5.73065898,8.66 4.88,7.80934102 4.88,6.76 C4.88,5.71065898 5.73065898,4.86 6.78,4.86 C7.82934102,4.86 8.68,5.71065898 8.68,6.76 C8.66391582,7.80260607 7.82260607,8.64391582 6.78,8.66 Z M21.05,21 L17.94,21 L17.94,15.84 C17.94,14.58 17.77,12.97 16.06,12.97 C14.35,12.97 14.06,14.33 14.06,15.75 L14.06,21 L10.93,21 L10.93,10.31 L13.81,10.31 L13.81,11.75 L13.9,11.75 C14.6007249,10.7200391 15.8111802,10.1590027 17.05,10.29 C20.45,10.29 21.05,12.29 21.05,15.15 L21.05,21 Z"
        
      ></path>
    </g>
  </symbol>
  <symbol>
    <g id="mail">
      <path
        d="M12,12 L9,9.4 L0.54,16.68 C0.866201973,16.9751046 1.29012116,17.1389725 1.73,17.14 L22.27,17.14 C22.7073374,17.141329 23.1289494,16.9769718 23.45,16.68 L15,9.4 L12,12 Z"
        
      ></path>
      <path
        d="M23.46,0.46 C23.133798,0.16489541 22.7098788,0.0010274873 22.27,2.628411e-16 L1.73,2.628411e-16 C1.29071508,-0.00167652558 0.867834678,0.166758888 0.55,0.47 L12,10.29 L23.46,0.46 Z"
       
      ></path>
      <polygon  points="0 1.5 0 15.75 8.29 8.71"></polygon>
      <polygon points="15.71 8.71 24 15.75 24 1.5"></polygon>
    </g>
  </symbol>
  <symbol>
    <g id="phone">
      <path
        d="M5,9.67 C6.63875251,12.8035952 9.19640481,15.3612475 12.33,17 L14.78,14.56 C15.0447716,14.2234982 15.5133179,14.1264121 15.89,14.33 C17.172896,14.7893687 18.5274372,15.0162543 19.89,15 C20.1939534,14.9642379 20.4975473,15.0696327 20.7139573,15.2860427 C20.9303673,15.5024527 21.0357621,15.8060466 21,16.11 L21,19.89 C21.0357621,20.1939534 20.9303673,20.4975473 20.7139573,20.7139573 C20.4975473,20.9303673 20.1939534,21.0357621 19.89,21 C14.8784332,21.0053145 10.0705993,19.0168305 6.52688443,15.4731156 C2.98316955,11.9294007 0.994685503,7.12156683 1,2.11 C0.964237915,1.80604663 1.06963274,1.50245274 1.28604274,1.28604274 C1.50245274,1.06963274 1.80604663,0.964237915 2.11,1 L6,1 C6.30395337,0.964237915 6.60754726,1.06963274 6.82395726,1.28604274 C7.04036726,1.50245274 7.14576209,1.80604663 7.11,2.11 C7.11301768,3.47100709 7.33935839,4.82229492 7.78,6.11 C7.86871201,6.49443712 7.78863529,6.89846054 7.56,7.22 L5,9.67 Z"
        
      ></path>
    </g>
  </symbol>
  <symbol>
    <g id="pinterest">
      <path
        d="M19.48,0 L6.5,0 C2.90919977,0.0164928064 0.00546111025,2.92916605 0,6.52 L0,19.52 C0.0273388392,23.0952131 2.92471965,25.9836789 6.5,26 L19.5,26 C23.0908002,25.9835072 25.9945389,23.0708339 26,19.48 L26,6.48 C25.9725685,2.89701754 23.0630834,0.00538210981 19.48,0 Z M14.3,16.61 C13.3922361,16.6221996 12.5348986,16.1935309 12,15.46 C12,15.46 11.44,17.6 11.32,18.01 C10.9217186,19.1231301 10.3329528,20.1585458 9.58,21.07 C9.56067003,21.1445584 9.48455844,21.18933 9.41,21.17 C9.33544156,21.15067 9.29067003,21.0745584 9.31,21 C9.11363262,19.8248132 9.11363262,18.6251868 9.31,17.45 C9.49,16.68 10.55,12.37 10.55,12.37 C10.3416799,11.9116819 10.2358855,11.413424 10.24,10.91 C10.24,9.52 11.06,8.49 12.09,8.49 C12.45579,8.47941767 12.8083672,8.62713527 13.0573736,8.89529597 C13.3063799,9.16345668 13.4276118,9.52599494 13.39,9.89 C13.2081478,11.0159435 12.9270523,12.1235937 12.55,13.2 C12.4342718,13.6566014 12.54755,14.1409651 12.8537706,14.4988852 C13.1599911,14.8568053 13.62099,15.0436746 14.09,15 C15.91,15 17.15,12.73 17.15,10.05 C17.15,8.05 15.72,6.48 13.15,6.48 C11.9200004,6.40863989 10.714718,6.84585185 9.81652758,7.68920538 C8.91833715,8.53255892 8.40616379,9.70794755 8.4,10.94 C8.36538152,11.6034004 8.57930964,12.2558812 9,12.77 C9.15667616,12.8932016 9.21364218,13.1047896 9.14,13.29 C9.14,13.45 9,13.87 8.94,14.03 C8.92057673,14.133319 8.85308778,14.2212013 8.75828084,14.2666296 C8.6634739,14.3120579 8.55269494,14.3095957 8.46,14.26 C7.11190535,13.6058248 6.31384622,12.1812892 6.46,10.69 C6.46,8.05 8.77,4.87 13.33,4.87 C17.01,4.87 19.42,7.45 19.42,10.21 C19.48,13.89 17.4,16.61 14.3,16.61 Z"
        
      ></path>
    </g>
  </symbol>
  <symbol>
    <g
      id="sign-out"
      transform="translate(-1.000000, 0.000000)"
      fill="#283593"
      fill-rule="nonzero"
    >
      <path
        d="M10.8,18.12 C10.777904,18.0551642 10.777904,17.9848358 10.8,17.92 C10.8,17.86 10.8,17.81 10.69,17.78 C10.58,17.75 10.57,17.71 10.57,17.69 C10.57,17.67 10.51,17.69 10.39,17.69 L10.21,17.69 L5.41,17.69 C4.75845014,17.7002355 4.13190144,17.4394753 3.68,16.97 C3.20950293,16.496921 2.9622806,15.8461445 3,15.18 L3,4.41 C2.98976453,3.75845014 3.25052469,3.13190144 3.72,2.68 C4.1689932,2.23532929 4.77815242,1.99022381 5.41,2 L10.31,2 C10.4221952,2.00654693 10.5327795,1.97087459 10.62,1.9 C10.7044485,1.82129123 10.7577021,1.71478409 10.77,1.6 C10.7951089,1.48132462 10.811817,1.3610262 10.82,1.24 C10.82,1.13 10.82,1 10.82,0.84 C10.82,0.68 10.82,0.57 10.82,0.53 C10.8288509,0.383160805 10.7653717,0.241265929 10.65,0.15 C10.5628056,0.0544088005 10.4393852,-4.1366484e-05 10.31,1.41542594e-16 L5.41,1.41542594e-16 C4.23694711,-0.0168652328 3.10862792,0.449651354 2.29,1.29 C1.44965135,2.10862792 0.983134767,3.23694711 1,4.41 L1,15.18 C0.980749809,16.3535074 1.44764176,17.4827345 2.29,18.3 C3.10862792,19.1403486 4.23694711,19.6068652 5.41,19.59 L10.31,19.59 C10.4221952,19.5965469 10.5327795,19.5608746 10.62,19.49 C10.7085477,19.4144273 10.7626705,19.3061818 10.77,19.19 C10.7951089,19.0713246 10.811817,18.9510262 10.82,18.83 C10.82,18.73 10.82,18.59 10.82,18.43 C10.82,18.27 10.8,18.16 10.8,18.12 Z"
        
      ></path>
      <path
        d="M24.71,9.11 L16.38,0.78 C15.9937017,0.411745823 15.3862983,0.411745823 15,0.78 C14.8062225,0.956726196 14.6970803,1.20775326 14.7,1.47 L14.7,5.88 L7.86,5.88 C7.30771525,5.88 6.86,6.32771525 6.86,6.88 L6.86,12.75 C6.86,13.3022847 7.30771525,13.75 7.86,13.75 L14.71,13.75 L14.71,18.16 C14.7070803,18.4222467 14.8162225,18.6732738 15.01,18.85 C15.39495,19.2119426 15.99505,19.2119426 16.38,18.85 L24.71,10.52 C25.0719426,10.13505 25.0719426,9.53495001 24.71,9.15 L24.71,9.11 Z"
        
      ></path>
    </g>
  </symbol>
  <g id="twitter">
    <path
      d="M19.46,7.28306304e-16 L6.52,7.28306304e-16 C2.92138684,0.00550668626 0.00550668626,2.92138684 0,6.52 L0,19.52 C0.0274315433,23.1029825 2.93691658,25.9946179 6.52,26 L19.52,26 C23.1107807,25.9725091 26.0056043,23.0508815 26,19.46 L26,6.52 C25.9780675,2.92042909 23.0596212,0.0109076877 19.46,7.28306304e-16 Z M19.46,9.73 L19.46,10.16 C19.4602817,12.6562666 18.4591612,15.048311 16.680925,16.8002308 C14.9026889,18.5521506 12.4959849,19.5174976 10,19.48 C8.19000448,19.4867595 6.41622306,18.9730224 4.89,18 C5.15,18 5.4,18 5.67,18 C7.16223419,18.0132772 8.61479321,17.5196892 9.79,16.6 C8.37561454,16.5831002 7.12725167,15.6719157 6.68,14.33 C6.88427783,14.3697436 7.09189196,14.3898353 7.3,14.39 C7.60084102,14.3921681 7.90047618,14.3517678 8.19,14.27 C6.66427306,13.9526392 5.57050009,12.6083839 5.57,11.05 C6.0217923,11.3070617 6.53033511,11.4479418 7.05,11.46 C5.59406692,10.5233733 5.13165333,8.60765978 6,7.11 C7.7046071,9.15917995 10.1880503,10.4027143 12.85,10.54 C12.7856439,10.2953301 12.7553582,10.0429497 12.76,9.79 C12.7652348,8.91217787 13.1210623,8.07285034 13.7483257,7.45873325 C14.375589,6.84461615 15.2222639,6.50664339 16.1,6.52 C17.01496,6.51037738 17.8949546,6.87103093 18.54,7.52 C19.2825303,7.37679112 19.9936288,7.1025103 20.64,6.71 C20.3847923,7.47073445 19.86727,8.11586494 19.18,8.53 C19.8393074,8.44842923 20.4829326,8.26983166 21.09,8 C20.6493718,8.67188324 20.0902844,9.25807788 19.44,9.73 L19.46,9.73 Z"
      
    ></path>
  </g>
  <g id="upload" fill="#EF6C00" fill-rule="nonzero">
    <path
      d="M18.12,14.2 C18.0551642,14.222096 17.9848358,14.222096 17.92,14.2 C17.86,14.2 17.81,14.2 17.78,14.31 C17.75,14.42 17.71,14.43 17.69,14.43 C17.67,14.43 17.69,14.49 17.69,14.61 L17.69,14.79 L17.69,19.56 C17.6847889,20.2177137 17.4164079,20.8459493 16.9447897,21.3044148 C16.4731715,21.7628804 15.837598,22.0133892 15.18,22 L4.41,22 C3.75845014,22.0102355 3.13190144,21.7494753 2.68,21.28 C2.23532929,20.8310068 1.99022381,20.2218476 2,19.59 L2,14.69 C2.00654693,14.5778048 1.97087459,14.4672205 1.9,14.38 C1.82129123,14.2955515 1.71478409,14.2422979 1.6,14.23 C1.48132462,14.2048911 1.3610262,14.188183 1.24,14.18 L0.49,14.18 C0.360349482,14.1786835 0.236431451,14.2333533 0.15,14.33 C0.0544088005,14.4171944 -4.1366484e-05,14.5406148 2.03938429e-16,14.67 L2.03938429e-16,19.57 C-0.0168652328,20.7430529 0.449651354,21.8713721 1.29,22.69 C2.1052145,23.5377036 3.23397252,24.0116372 4.41,24 L15.18,24 C16.3504191,24.0026631 17.4736678,23.5388946 18.3012812,22.7112812 C19.1288946,21.8836678 19.5926631,20.7604191 19.59,19.59 L19.59,14.69 C19.5965469,14.5778048 19.5608746,14.4672205 19.49,14.38 C19.4144273,14.2914523 19.3061818,14.2373295 19.19,14.23 C19.0713246,14.2048911 18.9510262,14.188183 18.83,14.18 L18.12,14.18 L18.12,14.2 Z"
      
    ></path>
    <path
      d="M9.11,0.29 L0.78,8.62 C0.411745823,9.00629829 0.411745823,9.61370171 0.78,10 C0.956726196,10.1937775 1.20775326,10.3029197 1.47,10.3 L5.88,10.3 L5.88,17.15 C5.88,17.7022847 6.32771525,18.15 6.88,18.15 L12.75,18.15 C13.3022847,18.15 13.75,17.7022847 13.75,17.15 L13.75,10.29 L18.16,10.29 C18.4222467,10.2929197 18.6732738,10.1837775 18.85,9.99 C19.2119426,9.60504999 19.2119426,9.00495001 18.85,8.62 L10.48,0.29 C10.09505,-0.0719425778 9.49495001,-0.0719425778 9.11,0.29 Z"
      
    ></path>
  </g>
  <g id="logo">
    <g id="abz.agency">
      <g class="cls-1">
        <path
          class="cls-2"
          d="M38.35,7.09A4,4,0,0,1,41.21,8a3.44,3.44,0,0,1,1,2.62V17.7c0,.56.22.84.67.84h.77V19.9a2.6,2.6,0,0,1-1.3.29A2,2,0,0,1,41,19.77a2.11,2.11,0,0,1-.71-1.14H40.2a3.38,3.38,0,0,1-3.07,1.66,5.46,5.46,0,0,1-.83-.07,3.55,3.55,0,0,1-.86-.3,2.94,2.94,0,0,1-.82-.6A3,3,0,0,1,34,18.27a4.83,4.83,0,0,1-.22-1.53,4.42,4.42,0,0,1,.46-2.13,3.06,3.06,0,0,1,1.37-1.29,7,7,0,0,1,2-.63,15.9,15.9,0,0,1,2.57-.18V10.88a2.3,2.3,0,0,0-.43-1.51,1.94,1.94,0,0,0-1.56-.53,1.77,1.77,0,0,0-1.49.58,2.21,2.21,0,0,0-.46,1.41v.29H34.32a3.43,3.43,0,0,1,0-.53A3.16,3.16,0,0,1,35.4,8,4.48,4.48,0,0,1,38.35,7.09Zm1.85,8.33V14.26a8.12,8.12,0,0,0-3.24.5,1.84,1.84,0,0,0-1.08,1.86,2.1,2.1,0,0,0,.42,1.47,1.68,1.68,0,0,0,1.28.45,2.48,2.48,0,0,0,1.83-.83A3.17,3.17,0,0,0,40.2,15.42Z"
        />
        <path
          class="cls-2"
          d="M47.26,18.54h-.12L46.87,20H45.38V2.65h2V8.58h.12a2.33,2.33,0,0,1,1-1.1,3.45,3.45,0,0,1,1.66-.39,3.11,3.11,0,0,1,2.72,1.65,9.33,9.33,0,0,1,1,4.92c0,4.42-1.31,6.63-3.91,6.63A2.94,2.94,0,0,1,47.26,18.54Zm4.6-4.4v-.91a7.53,7.53,0,0,0-.55-3.36,1.8,1.8,0,0,0-1.7-1q-2.27,0-2.26,4.49v.81q0,4.39,2.26,4.4a1.81,1.81,0,0,0,1.7-1A7.48,7.48,0,0,0,51.86,14.14Z"
        />
        <path
          class="cls-2"
          d="M63.77,7.38v.91l-5.57,10h5.88V20H55.51v-.94l5.55-9.93H55.9V7.38Z"
        />
        <path class="cls-2" d="M68.66,17.41V20h-2.4V17.41Z" />
        <path
          class="cls-2"
          d="M75.55,7.09A4,4,0,0,1,78.41,8a3.44,3.44,0,0,1,1,2.62V17.7c0,.56.22.84.67.84h.77V19.9a2.6,2.6,0,0,1-1.3.29,2,2,0,0,1-1.28-.42,2.11,2.11,0,0,1-.71-1.14H77.4a3.38,3.38,0,0,1-3.07,1.66,5.46,5.46,0,0,1-.83-.07,3.76,3.76,0,0,1-.87-.3,3,3,0,0,1-.81-.6,2.89,2.89,0,0,1-.58-1.05A4.83,4.83,0,0,1,71,16.74a4.42,4.42,0,0,1,.46-2.13,3,3,0,0,1,1.37-1.29,7,7,0,0,1,2-.63,15.9,15.9,0,0,1,2.57-.18V10.88A2.3,2.3,0,0,0,77,9.37a1.94,1.94,0,0,0-1.56-.53,1.77,1.77,0,0,0-1.49.58,2.21,2.21,0,0,0-.46,1.41v.29H71.52a3.43,3.43,0,0,1,0-.53A3.16,3.16,0,0,1,72.6,8,4.47,4.47,0,0,1,75.55,7.09Zm1.85,8.33V14.26a8.12,8.12,0,0,0-3.24.5,1.84,1.84,0,0,0-1.08,1.86,2.1,2.1,0,0,0,.42,1.47,1.68,1.68,0,0,0,1.28.45,2.48,2.48,0,0,0,1.83-.83A3.22,3.22,0,0,0,77.4,15.42Z"
        />
        <path
          class="cls-2"
          d="M89.88,5.34h1.73a3.33,3.33,0,0,1-.57,2A2.52,2.52,0,0,1,89.5,8.36a4.13,4.13,0,0,1,1.12,3,4.26,4.26,0,0,1-1.09,3.08,3.94,3.94,0,0,1-2.94,1.16H85.27a1.1,1.1,0,0,0-.81.33,1.1,1.1,0,0,0,0,1.59,1.07,1.07,0,0,0,.81.34h3.6a2.83,2.83,0,0,1,2.16.85,3,3,0,0,1,.82,2.1,3.58,3.58,0,0,1-1,2.57,3.63,3.63,0,0,1-2.73,1H84.58a3.06,3.06,0,0,1-2.31-.85,3,3,0,0,1-.81-2.15,3.11,3.11,0,0,1,.44-1.67,2.35,2.35,0,0,1,1.19-1,2.1,2.1,0,0,1-1-1.9,2.28,2.28,0,0,1,1.78-2.18,4,4,0,0,1-1.46-3.26,4.25,4.25,0,0,1,1.1-3.12,4,4,0,0,1,3-1.13,3.8,3.8,0,0,1,1.82.45A2.87,2.87,0,0,0,89.88,5.34ZM88.37,19.71H84.89a1.43,1.43,0,0,0-1.1.41,1.54,1.54,0,0,0-.37,1.06,1.49,1.49,0,0,0,.39,1.06,1.37,1.37,0,0,0,1.08.42h3.48a1.49,1.49,0,0,0,1.49-1.48,1.38,1.38,0,0,0-1.49-1.47Zm-.3-10.32a2,2,0,0,0-1.6-.67,1.87,1.87,0,0,0-1.58.7,3,3,0,0,0-.56,1.92,3,3,0,0,0,.56,1.94,1.9,1.9,0,0,0,1.58.67,2,2,0,0,0,1.6-.69,3,3,0,0,0,.56-1.92A3,3,0,0,0,88.07,9.39Z"
        />
        <path
          class="cls-2"
          d="M97.85,7.09A3.63,3.63,0,0,1,101,8.49,7.85,7.85,0,0,1,102,13v1.24H95.16a6.2,6.2,0,0,0,.68,3.24,2.29,2.29,0,0,0,2.08,1,1.88,1.88,0,0,0,1.55-.77,3.33,3.33,0,0,0,.58-2.07h2a4.74,4.74,0,0,1-1.14,3.35,3.86,3.86,0,0,1-3,1.24,4.23,4.23,0,0,1-3.59-1.57,8.45,8.45,0,0,1-1.19-5,8.51,8.51,0,0,1,1.18-5A4.12,4.12,0,0,1,97.85,7.09Zm0,1.75a2.18,2.18,0,0,0-1.91.9,5.39,5.39,0,0,0-.76,2.77h4.76C99.94,10.06,99.24,8.84,97.85,8.84Z"
        />
        <path
          class="cls-2"
          d="M109.41,7.09c2.08,0,3.13,1.27,3.13,3.81V20h-2V11.05a2.55,2.55,0,0,0-.46-1.72,1.69,1.69,0,0,0-1.32-.49,2,2,0,0,0-1.67.94,4.21,4.21,0,0,0-.68,2.52V20h-2V7.38H106l.26,1.46h.15A3.24,3.24,0,0,1,109.41,7.09Z"
        />
        <path
          class="cls-2"
          d="M119.16,7.09a3.41,3.41,0,0,1,2.94,1.25,6.26,6.26,0,0,1,.92,3.72h-2a5.68,5.68,0,0,0-.39-2.46,1.47,1.47,0,0,0-1.43-.76q-2.26,0-2.26,4.39v.91q0,4.39,2.26,4.4a1.54,1.54,0,0,0,1.47-.8,5,5,0,0,0,.45-2.42H123a6.15,6.15,0,0,1-1,3.56,3.26,3.26,0,0,1-2.91,1.41,3.63,3.63,0,0,1-3.28-1.6,9.39,9.39,0,0,1-1-5,9.35,9.35,0,0,1,1-5A3.66,3.66,0,0,1,119.16,7.09Z"
        />
        <path
          class="cls-2"
          d="M133.44,7.38l-3.22,12A11.19,11.19,0,0,1,128.64,23a3,3,0,0,1-2.5,1.33,4.57,4.57,0,0,1-1.41-.19V22.81h.69c1.27,0,2.1-.94,2.5-2.81L124.05,7.38h2.16L129,17.17h.09l2.36-9.79Z"
        />
      </g>
    </g>
    <g id="abz">
      <path
        
        class="cls-2"
        d="M10.71,16.45l1.3-2h0L20.26,1.87H3.77l3.86,5.9-1.29,2L0,0H24L12,18.42l-1.29-2Zm2.58-8.89-1.3,2h0L3.74,22.13H20.23l-3.86-5.9,1.29-2L24,24H0L12,5.59l1.29,2Z"
      />
    </g>
  </g>
  <symbol>
    <g id="css" stroke="none" stroke-width="1" fill="none" fill-rule="evenodd">
      <g fill-rule="nonzero">
        <polygon
          
          fill="#264DE4"
          points="49.94 113.41 9.1 102.07 0 0 100 0 90.89 102.06"
        ></polygon>
        <polygon
          
          fill="#2965F1"
          points="83.09 95.56 90.88 8.35 50 8.35 50 104.73"
        ></polygon>
        <path
          d="M20.86,46.2 L22,58.72 L50,58.72 L50,46.2 L20.86,46.2 Z M18.61,20.87 L19.75,33.38 L50,33.38 L50,20.87 L18.61,20.87 Z M50,78.72 L36,75 L35.11,65 L22.54,65 L24.3,84.64 L49.94,91.76 L50,91.76 L50,78.72 Z"
          
          fill="#EBEBEB"
        ></path>
        <polygon
          
          fill="#FFFFFF"
          points="79.06 46.2 81.32 20.87 50 20.87 50 33.38 67.6 33.38 66.46 46.2 50 46.2 50 58.72 65.37 58.72 63.92 75 50 78.73 50 91.73 75.66 84.62 75.85 82.5 78.79 49.55 79.1 46.18"
        ></polygon>
      </g>
    </g>
  </symbol>
  <symbol>
    <g id="html" stroke="none" stroke-width="1" fill="none" fill-rule="evenodd">
      <g fill-rule="nonzero">
        <polygon
          
          fill="#E44D26"
          points="100 0 90.89 102.06 49.94 113.41 9.1 102.07 0 0"
        ></polygon>
        <polygon
          
          fill="#F16529"
          points="50 104.73 83.09 95.56 90.88 8.35 50 8.35"
        ></polygon>
        <path
          d="M32.29,33.38 L50,33.38 L50,20.87 L18.61,20.87 L18.91,24.22 L22,58.72 L50,58.72 L50,46.2 L33.43,46.2 L32.29,33.38 Z M35.11,65 L22.54,65 L24.3,84.64 L49.94,91.76 L50,91.76 L50,78.76 L36,75 L35.11,65 Z"
          
          fill="#EBEBEB"
        ></path>
        <path
          d="M50,58.72 L65.37,58.72 L63.92,75 L50,78.73 L50,91.73 L75.66,84.62 L75.85,82.5 L78.79,49.55 L79.1,46.18 L50,46.18 L50,58.72 Z M50,33.35 L80.2,33.35 L80.45,30.54 L81,24.22 L81.3,20.87 L50,20.87 L50,33.35 Z"
          id="Shape"
          fill="#FFFFFF"
        ></path>
      </g>
    </g>
  </symbol>
  <symbol>
    <g
      id="javascript"
      stroke="none"
      stroke-width="1"
      fill="none"
      fill-rule="evenodd"
    >
      <g fill-rule="nonzero">
        <path
          d="M9.28,102.18 L0,0 L100,0 L90.8,102.11 L49.92,113.65 L9.28,102.18 Z M83.28,96.61 L91,9.09 L50.08,9.09 L50.39,105.62 L83.28,96.61 Z M46.28,21.92 L36.31,21.92 L36.19,74.3 L16.89,69 L16.89,81 L46.22,88.91 L46.22,21.91 L46.28,21.92 Z"
          id="path5113"
          fill="#D4B830"
        ></path>
        <path
          d="M43,88 C41.71,87.61 35.36,85.89 28.88,84.14 L17.12,80.93 L17.12,75 C17.12,69.23 17.12,69.11 17.71,69.3 C18.02,69.42 22.31,70.59 27.22,71.96 L36.15,74.41 L36.23,48.28 L36.31,22.15 L46.06,22.15 L46.06,55.42 C46.06,81.83 45.98,88.65 45.71,88.65 C45.44,88.65 44.27,88.3 43,88 Z"
          id="path5159"
          fill-opacity="0"
          fill="#EBEBEB"
          opacity="0.99"
        ></path>
        <path
          d="M16.93,81 L16.93,69 C16.93,69 29.25,72.47 36.23,74.27 L36.31,22 L46.26,22 L46.26,89 L16.93,81 Z"
          id="path5157"
          fill-opacity="0.92"
          fill="#EBEBEB"
          opacity="0.99"
        ></path>
        <path
          d="M50.08,9.05 L91,9.05 L83.27,96.57 L50.08,105.57 L50.08,9.05 Z M81.16,81.9 L83.85,49.18 L64,51.4 L64,33.93 L85.22,33.85 L86,21.92 L54,22.07 L54.43,65.52 L73.77,62.21 L73.5,71.88 L54,77.07 L54.19,88.92 L81.14,81.92 L81.16,81.9 Z"
          id="path5117"
          fill="#FDD83C"
        ></path>
      </g>
    </g>
  </symbol>
  <symbol></symbol>
  <symbol></symbol>
  <symbol></symbol>
  <symbol></symbol>
</svg>
